<?xml version="1.0" encoding="utf-8"?>
<!-- Generator: Adobe Illustrator 16.0.0, SVG Export Plug-In . SVG Version: 6.00 Build 0)  -->
<!DOCTYPE svg PUBLIC "-//W3C//DTD SVG 1.1//EN" "http://www.w3.org/Graphics/SVG/1.1/DTD/svg11.dtd">
<svg version="1.1" id="Layer_1" xmlns="http://www.w3.org/2000/svg" xmlns:xlink="http://www.w3.org/1999/xlink" x="0px" y="0px"
	 width="111.333px" height="107.347px" viewBox="26.333 2.5 111.333 107.347" enable-background="new 26.333 2.5 111.333 107.347"
	 xml:space="preserve">
<g>
	<path fill="#00C012" d="M82.131,108.847c-2.039,0-3.918-2.313-5.895-2.552c-2.019-0.244-4.396,1.551-6.333,1.072
		c-1.971-0.485-3.239-3.182-5.109-3.894c-1.891-0.72-4.631,0.45-6.405-0.485c-1.786-0.941-2.371-3.865-4.022-5.008
		c-1.657-1.148-4.6-0.667-6.104-2.001c-1.507-1.337-1.381-4.314-2.717-5.821c-1.334-1.505-4.307-1.735-5.454-3.393
		c-1.143-1.652-0.313-4.514-1.254-6.3c-0.936-1.774-3.767-2.707-4.487-4.599c-0.71-1.869,0.783-4.446,0.298-6.416
		c-0.478-1.938-3.001-3.524-3.245-5.544c-0.238-1.976,1.831-4.118,1.831-6.157c0-2.04-2.069-4.183-1.831-6.158
		c0.244-2.019,2.768-3.606,3.245-5.544c0.485-1.969-1.008-4.547-0.297-6.418c0.721-1.891,3.552-2.823,4.486-4.598
		c0.941-1.786,0.111-4.647,1.254-6.3c1.148-1.657,4.121-1.888,5.456-3.393c1.336-1.506,1.209-4.484,2.716-5.82
		c1.505-1.335,4.446-0.854,6.104-2.001c1.652-1.143,2.236-4.066,4.022-5.008c1.774-0.936,4.515,0.234,6.406-0.484
		c1.869-0.712,3.139-3.41,5.107-3.896c1.938-0.478,4.314,1.318,6.333,1.075c1.977-0.238,3.855-2.553,5.895-2.553
		s3.919,2.314,5.896,2.553c2.019,0.244,4.395-1.551,6.333-1.075c1.97,0.486,3.238,3.184,5.108,3.896
		c1.892,0.72,4.632-0.45,6.406,0.484c1.786,0.941,2.37,3.865,4.022,5.008c1.657,1.148,4.599,0.667,6.103,2.001
		c1.507,1.337,1.381,4.315,2.717,5.822c1.335,1.505,4.308,1.734,5.455,3.393c1.143,1.65,0.313,4.513,1.253,6.299
		c0.936,1.774,3.768,2.707,4.487,4.599c0.711,1.87-0.783,4.447-0.298,6.416c0.479,1.938,3.002,3.525,3.245,5.544
		c0.239,1.976-1.83,4.118-1.83,6.158c0,2.039,2.068,4.182,1.83,6.158c-0.243,2.019-2.767,3.605-3.245,5.544
		c-0.485,1.969,1.009,4.546,0.296,6.417c-0.719,1.891-3.551,2.823-4.485,4.598c-0.941,1.786-0.11,4.648-1.254,6.299
		c-1.147,1.658-4.12,1.889-5.455,3.394c-1.336,1.507-1.21,4.485-2.717,5.82c-1.504,1.335-4.445,0.854-6.104,2.001
		c-1.651,1.144-2.235,4.067-4.022,5.009c-1.772,0.935-4.514-0.235-6.405,0.484c-1.87,0.712-3.139,3.408-5.107,3.895
		c-1.938,0.478-4.314-1.317-6.333-1.073C86.05,106.533,84.17,108.847,82.131,108.847z"/>
	<circle fill="#FFFFFF" cx="82.087" cy="57.913" r="29.877"/>
	<path fill="#00432C" d="M82.131,105.543c-26.353,0-47.792-21.439-47.792-47.793S55.778,9.957,82.131,9.957
		c26.354,0,47.793,21.439,47.793,47.793S108.484,105.543,82.131,105.543z M82.131,30.096c-15.248,0-27.654,12.405-27.654,27.654
		s12.406,27.654,27.654,27.654c15.249,0,27.654-12.405,27.654-27.654S97.38,30.096,82.131,30.096z"/>
	<g>
		<g>
			<g>
				<linearGradient id="SVGID_1_" gradientUnits="userSpaceOnUse" x1="43.4014" y1="59.4082" x2="45.542" y2="59.4082">
					<stop  offset="0.0322" style="stop-color:#009023"/>
					<stop  offset="1" style="stop-color:#00C012"/>
				</linearGradient>
				<circle fill="url(#SVGID_1_)" cx="44.472" cy="59.407" r="1.07"/>
				<linearGradient id="SVGID_2_" gradientUnits="userSpaceOnUse" x1="119.0547" y1="59.4082" x2="121.4092" y2="59.4082">
					<stop  offset="0.0322" style="stop-color:#009023"/>
					<stop  offset="1" style="stop-color:#00C012"/>
				</linearGradient>
				<circle fill="url(#SVGID_2_)" cx="120.232" cy="59.407" r="1.177"/>
			</g>
		</g>
	</g>
	<path fill="#FFFFFF" d="M52.306,57.75c0-16.446,13.38-29.825,29.825-29.825s29.825,13.379,29.825,29.825l0,0h15.798l0,0
		c0-25.157-20.467-45.623-45.623-45.623c-25.157,0-45.623,20.466-45.623,45.623l0,0H52.306L52.306,57.75z"/>
	<path fill="#00C012" d="M111.956,57.75c0,16.445-13.38,29.824-29.825,29.824S52.306,74.195,52.306,57.75H36.508
		c0,25.155,20.467,45.623,45.623,45.623s45.623-20.468,45.623-45.623H111.956z"/>
	<g>
		<path fill="none" d="M40.722,57.529c0,22.87,18.539,41.409,41.409,41.409c22.869,0,41.408-18.539,41.408-41.409"/>
		<text transform="matrix(0.2166 0.9763 -0.9763 0.2166 41.0576 63.623)"><tspan x="0" y="0" fill="#FFFFFF" font-family="'BebasNeue'" font-size="10.2857">C</tspan><tspan x="8.989" y="-0.342" fill="#FFFFFF" font-family="'BebasNeue'" font-size="10.2857" rotate="-12.302">o</tspan><tspan x="17.629" y="-2.458" fill="#FFFFFF" font-family="'BebasNeue'" font-size="10.2857" rotate="-26.596">m</tspan><tspan x="27.883" y="-8.229" fill="#FFFFFF" font-family="'BebasNeue'" font-size="10.2857" rotate="-40.915">p</tspan><tspan x="34.339" y="-14.287" fill="#FFFFFF" font-family="'BebasNeue'" font-size="10.2857" rotate="-52.548">a</tspan><tspan x="38.955" y="-20.749" fill="#FFFFFF" font-family="'BebasNeue'" font-size="10.2857" rotate="-64.135">n</tspan><tspan x="42.433" y="-28.708" fill="#FFFFFF" font-family="'BebasNeue'" font-size="10.2857" rotate="-75.539">y</tspan><tspan x="44.029" y="-36.099" fill="#FFFFFF" font-family="'BebasNeue'" font-size="10.2857" rotate="-84.059"> </tspan><tspan x="44.434" y="-41.017" fill="#FFFFFF" font-family="'BebasNeue'" font-size="10.2857" rotate="-92.771">L</tspan><tspan x="43.755" y="-48.608" fill="#FFFFFF" font-family="'BebasNeue'" font-size="10.2857" rotate="-101.689">i</tspan><tspan x="42.654" y="-53.945" fill="#FFFFFF" font-family="'BebasNeue'" font-size="10.2857" rotate="-113.469">m</tspan><tspan x="37.496" y="-64.277" fill="#FFFFFF" font-family="'BebasNeue'" font-size="10.2857" rotate="-125.141">i</tspan><tspan x="34.44" y="-68.359" fill="#FFFFFF" font-family="'BebasNeue'" font-size="10.2857" rotate="-132.849">t</tspan><tspan x="30.061" y="-72.832" fill="#FFFFFF" font-family="'BebasNeue'" font-size="10.2857" rotate="-142.727">e</tspan><tspan x="23.403" y="-77.549" fill="#FFFFFF" font-family="'BebasNeue'" font-size="10.2857" rotate="-154.538">d</tspan></text>
	</g>
	<g>
		<path fill="none" d="M48.789,57.7c0-18.416,14.929-33.345,33.345-33.345s33.346,14.929,33.346,33.345"/>
		<text transform="matrix(0.445 -0.8955 0.8955 0.445 49.8154 47.7871)"><tspan x="0" y="0" fill="#00432C" font-family="'Montserrat-SemiBold'" font-size="11.4772">M</tspan><tspan x="12.226" y="0.411" fill="#00432C" font-family="'Montserrat-SemiBold'" font-size="11.4772" rotate="18.873">A</tspan><tspan x="21.577" y="3.836" fill="#00432C" font-family="'Montserrat-SemiBold'" font-size="11.4772" rotate="35.669">K</tspan><tspan x="29.363" y="9.651" fill="#00432C" font-family="'Montserrat-SemiBold'" font-size="11.4772" rotate="52.593">A</tspan><tspan x="35.293" y="17.669" fill="#00432C" font-family="'Montserrat-SemiBold'" font-size="11.4772" rotate="70.097">N</tspan><tspan x="38.534" y="27.807" fill="#00432C" font-family="'Montserrat-SemiBold'" font-size="11.4772" rotate="85.667">J</tspan><tspan x="38.844" y="35.377" fill="#00432C" font-family="'Montserrat-SemiBold'" font-size="11.4772" rotate="96.668">I</tspan><tspan x="38.34" y="40.515" fill="#00432C" font-family="'Montserrat-SemiBold'" font-size="11.4772" rotate="109.471">R</tspan><tspan x="34.993" y="49.663" fill="#00432C" font-family="'Montserrat-SemiBold'" font-size="11.4772" rotate="127.148">O</tspan></text>
	</g>
	<path fill="#00432C" d="M108.823,67.898c0,0-0.059-0.004-0.17-0.013c-0.008,0.021-0.016,0.04-0.024,0.062
		C108.694,67.932,108.758,67.915,108.823,67.898z"/>
	<path fill="none" d="M103.738,76.061c-0.756,0.742-1.459,1.48-2.109,2.211C102.37,77.572,103.074,76.834,103.738,76.061z"/>
	<path fill="none" d="M54.327,63.784c6.66,0.601,11.679,2.581,14.529,3.998c1.124-0.367,2.289-0.724,3.49-1.06
		c-5.965-4.063-14.568-5.617-18.553-6.144"/>
	<path fill="#00432C" d="M107.741,67.153c0.008-0.021,0.017-0.041,0.024-0.062c-2.139-0.159-24.033-1.352-39.54,14.981
		c3.228,1.66,6.813,2.719,10.611,3.036C81.112,81.765,89.358,71.571,107.741,67.153z"/>
	<path fill="#00432C" d="M103.738,76.061c1.671-1.945,3.083-4.117,4.185-6.466c-6.14,2.48-14.668,7.251-21.265,16.051
		c5.747-0.921,10.915-3.562,14.971-7.374C102.279,77.541,102.982,76.803,103.738,76.061z"/>
	<path fill="#00432C" d="M108.595,65.369c-10.967-2.394-21.204-1.881-29.969-0.147c-2.327-1.425-11.494-6.363-24.877-5.125
		c0.016,0.161,0.027,0.322,0.045,0.482c3.984,0.526,12.588,2.08,18.553,6.144c-1.201,0.336-2.366,0.692-3.49,1.06
		c-2.851-1.417-7.869-3.397-14.529-3.998c0.178,0.791,0.384,1.571,0.626,2.337c2.892,0.839,5.942,1.997,8.599,3.594
		c-1.097,0.44-2.14,0.883-3.122,1.322c-1.179-0.492-2.56-0.999-4.126-1.461c1.762,3.765,4.319,7.079,7.46,9.729
		C80.923,64.013,108.595,65.369,108.595,65.369z"/>
	<polygon fill="#00432C" points="80.163,55.078 80.163,65.14 104.196,65.14 104.196,55.136 105.806,55.136 102.355,48.926 
		92.352,43.981 82.347,48.811 78.38,55.021 	"/>
	<circle fill="#FFFFFF" cx="92.092" cy="51.455" r="1.725"/>
	<rect x="86.545" y="58.412" fill="#FFFFFF" width="11.096" height="5.635"/>
	<path fill="#00432C" d="M66.739,54.124c-0.112-0.483-0.508-0.844-0.688-1.311c-0.267-0.691-0.043-1.462,0.088-2.19
		c0.133-0.742,0.16-1.537-0.153-2.224c-0.832-1.823-3.556-1.426-3.8,0.575c-0.121,0.995,0.501,1.973,0.363,2.966
		c-0.087,0.621-0.459,1.158-0.691,1.74c-0.583,1.461-0.204,3.254,0.919,4.354c0.255,0.25,0.613,0.516,0.987,0.682v2.011h0.968
		v-1.885C65.259,58.736,65.771,58.38,66.1,58c0.482-0.559,0.732-1.293,0.795-2.028C66.946,55.356,66.88,54.725,66.739,54.124z"/>
	<path fill="#00432C" stroke="#00432C" stroke-miterlimit="10" d="M73.966,53.024c-0.125-0.538-0.565-0.939-0.766-1.459
		c-0.298-0.771-0.048-1.629,0.098-2.442c0.148-0.827,0.179-1.712-0.17-2.477c-0.928-2.032-3.963-1.59-4.234,0.642
		c-0.135,1.108,0.559,2.197,0.404,3.304c-0.096,0.691-0.511,1.291-0.77,1.939c-0.65,1.626-0.229,3.626,1.023,4.851
		c0.284,0.278,0.684,0.575,1.102,0.759v4.784h1.078v-4.644c0.585-0.116,1.156-0.514,1.523-0.938c0.537-0.622,0.815-1.44,0.885-2.261
		C74.196,54.397,74.122,53.694,73.966,53.024z"/>
	<path fill="none" d="M82.131,30.096c-15.248,0-27.654,12.405-27.654,27.654s12.406,27.654,27.654,27.654
		c15.249,0,27.654-12.405,27.654-27.654S97.38,30.096,82.131,30.096z"/>
</g>
</svg>
